HIERARCHY
ROOT Hips
{
	OFFSET 0.000000 0.000000 0.000000
	CHANNELS 6 Xposition Yposition Zposition Zrotation Yrotation Xrotation 
	JOINT LeftUpLeg_virtual
	{
		OFFSET 0.000000 0.000000 0.000000
		CHANNELS 3 Zrotation Yrotation Xrotation
		JOINT LeftUpLeg
		{
			OFFSET 10.205400 -3.823500 0.155100
			CHANNELS 3 Zrotation Yrotation Xrotation
			JOINT LeftLeg
			{
				OFFSET 0.708757 -12.982077 0.567790
				CHANNELS 3 Zrotation Yrotation Xrotation
				JOINT LeftFoot
				{
					OFFSET -0.708756 -10.717838 -2.184338
					CHANNELS 3 Zrotation Yrotation Xrotation
					JOINT LeftToeBase
					{
						OFFSET 0.108149 -7.191104 7.560241
						CHANNELS 3 Zrotation Yrotation Xrotation
						End Site
						{
							OFFSET 0.000000 0.000000 0.000000
						}
					}
				}
			}
		}
	}
	JOINT RightUpLeg_virtual
	{
		OFFSET 0.000000 0.000000 0.000000
		CHANNELS 3 Zrotation Yrotation Xrotation
		JOINT RightUpLeg
		{
			OFFSET -10.205400 -3.823500 0.005500
			CHANNELS 3 Zrotation Yrotation Xrotation
			JOINT RightLeg
			{
				OFFSET -0.708756 -12.982134 0.610632
				CHANNELS 3 Zrotation Yrotation Xrotation
				JOINT RightFoot
				{
					OFFSET 0.708754 -10.717769 -1.945823
					CHANNELS 3 Zrotation Yrotation Xrotation
					JOINT RightToeBase
					{
						OFFSET -0.108140 -7.191069 7.372968
						CHANNELS 3 Zrotation Yrotation Xrotation
						End Site
						{
							OFFSET 0.000000 0.000000 0.000000
						}
					}
				}
			}
		}
	}
	JOINT Spine_virtual
	{
		OFFSET 0.000000 0.000000 0.000000
		CHANNELS 3 Zrotation Yrotation Xrotation
		JOINT Spine
		{
			OFFSET 0.000000 6.876099 0.125700
			CHANNELS 3 Zrotation Yrotation Xrotation
			JOINT Spine1
			{
				OFFSET 0.000000 8.022060 0.146608
				CHANNELS 3 Zrotation Yrotation Xrotation
				JOINT Spine2
				{
					OFFSET 0.000000 9.168068 0.167552
					CHANNELS 3 Zrotation Yrotation Xrotation
					JOINT Neck_virtual
					{
						OFFSET 0.000000 0.000000 0.000000
						CHANNELS 3 Zrotation Yrotation Xrotation
						JOINT Neck
						{
							OFFSET 0.000000 10.314075 0.188496
							CHANNELS 3 Zrotation Yrotation Xrotation
							JOINT Head
							{
								OFFSET 0.000000 7.643700 -2.377400
								CHANNELS 3 Zrotation Yrotation Xrotation
								End Site
								{
									OFFSET 0.000000 0.000000 0.000000
								}
							}
						}
					}
					JOINT LeftShoulder_virtual
					{
						OFFSET 0.000000 0.000000 0.000000
						CHANNELS 3 Zrotation Yrotation Xrotation
						JOINT LeftShoulder
						{
							OFFSET 4.392200 8.824978 0.174984
							CHANNELS 3 Zrotation Yrotation Xrotation
							JOINT LeftArm
							{
								OFFSET 8.771219 -2.981674 -0.026999
								CHANNELS 3 Zrotation Yrotation Xrotation
								JOINT LeftForeArm
								{
									OFFSET 8.512804 0.000000 -0.000000
									CHANNELS 3 Zrotation Yrotation Xrotation
									JOINT LeftHand
									{
										OFFSET 18.484802 0.000000 -0.000000
										CHANNELS 3 Zrotation Yrotation Xrotation
										End Site
										{
											OFFSET 0.000000 0.000000 0.000000
										}
									}
								}
							}
						}
					}
					JOINT RightShoulder_virtual
					{
						OFFSET 0.000000 0.000000 0.000000
						CHANNELS 3 Zrotation Yrotation Xrotation
						JOINT RightShoulder
						{
							OFFSET -4.392200 8.824993 0.141379
							CHANNELS 3 Zrotation Yrotation Xrotation
							JOINT RightArm
							{
								OFFSET -8.771282 -2.981682 -0.094208
								CHANNELS 3 Zrotation Yrotation Xrotation
								JOINT RightForeArm
								{
									OFFSET -8.494598 0.000000 0.000000
									CHANNELS 3 Zrotation Yrotation Xrotation
									JOINT RightHand
									{
										OFFSET -18.483803 0.000000 0.000001
										CHANNELS 3 Zrotation Yrotation Xrotation
										End Site
										{
											OFFSET 0.000000 0.000000 0.000000
										}
									}
								}
							}
						}
					}
				}
			}
		}
	}
}
MOTION
Frames: 10
Frame Time: 0.033333
-14.975397 28.524151 0.376895 -179.968955 9.654894 179.882171 1.113254 -7.395720 21.197079 5.146966 8.876745 32.728460 12.397919 -7.152198 41.216018 -9.608015 -1.600748 6.733216 0.000000 0.000000 0.000000 5.507807 -4.028796 23.785659 2.998739 -0.547260 -7.792768 -13.283857 2.873977 30.982203 8.213863 1.333916 11.134571 0.000000 0.000000 0.000000 5.141557 -2.304130 0.205206 5.353232 8.285440 -20.477652 0.337378 -3.639445 10.734328 -0.014088 0.048958 0.005497 0.035058 -1.219801 13.879962 13.209760 -5.539011 29.753230 0.000000 0.000000 0.000000 2.153218 -0.765270 8.976106 -6.217085 -13.907653 -1.573474 -59.294197 -3.163578 16.969690 -124.406063 -82.624375 157.905969 0.000000 0.000000 0.000000 -3.459858 1.122663 7.553462 20.102090 9.692108 0.066125 50.864907 -9.129671 32.270824 -175.103811 59.908204 179.867964 0.000000 0.000000 0.000000 
-14.961700 28.519154 0.359926 -179.964392 9.679241 179.863060 1.012166 -7.432876 21.460702 4.925647 8.775943 32.536911 12.390942 -7.231358 41.197287 -9.556702 -1.550923 6.827235 0.000000 0.000000 0.000000 5.622084 -3.975598 23.710821 2.814880 -0.808956 -7.718066 -13.154452 2.838869 31.301384 8.232605 1.277448 10.971082 0.000000 0.000000 0.000000 5.111977 -2.084606 0.139008 5.382533 8.251717 -20.452445 0.315490 -3.796121 10.814141 -0.024066 -0.031126 -0.001815 0.007649 -1.247678 13.926539 13.137158 -5.542824 29.865292 0.000000 0.000000 0.000000 2.193460 -0.751839 9.060764 -6.392814 -13.860126 -1.367579 -59.084531 -3.555650 17.094053 -124.546150 -82.753807 158.149192 0.000000 0.000000 0.000000 -3.461952 1.145115 7.657430 20.376548 9.647222 0.023734 50.795075 -9.147121 31.596506 -175.014978 59.968603 179.926703 0.000000 0.000000 0.000000 
-14.938446 28.517870 0.357676 179.956674 9.619333 179.821860 0.908504 -7.471240 21.403914 4.787019 8.606551 32.635351 12.389137 -7.372976 41.143594 -9.443080 -1.502888 6.862306 0.000000 0.000000 0.000000 5.609619 -4.031667 23.611257 2.679314 -0.854540 -7.638395 -13.017892 2.752122 31.514394 8.219383 1.202128 10.790748 0.000000 0.000000 0.000000 4.990755 -2.060050 0.080455 5.422738 8.192612 -20.414220 0.350616 -3.751250 10.877908 -0.032622 -0.037668 0.014950 0.064718 -1.165130 13.974024 13.110306 -5.607052 29.958118 0.000000 0.000000 0.000000 2.168045 -0.836780 9.133184 -6.565886 -13.941128 -1.247895 -58.711070 -4.142686 17.088546 -124.145354 -82.610715 157.828938 0.000000 0.000000 0.000000 -3.442757 1.078002 7.686445 20.768044 9.295905 -0.027847 50.904495 -8.982912 30.058303 -174.874057 59.878663 179.986140 0.000000 0.000000 0.000000 
-14.913101 28.516899 0.362700 179.950882 9.793858 179.793788 0.943312 -7.223792 21.300409 4.725369 8.475115 32.792910 12.348226 -7.472848 41.086713 -9.299055 -1.525978 6.877671 0.000000 0.000000 0.000000 5.632776 -3.918645 23.533658 2.665055 -0.909005 -7.594693 -13.044161 2.656989 31.634609 8.388917 1.060913 10.744774 0.000000 0.000000 0.000000 5.086578 -2.032768 0.046978 5.344489 8.154841 -20.317263 0.326830 -3.713501 10.931813 -0.036418 0.002668 0.004521 0.056800 -1.289116 14.022240 12.993563 -5.598130 30.268998 0.000000 0.000000 0.000000 2.220711 -0.788395 9.124241 -6.746809 -13.919920 -1.254523 -58.144041 -4.664919 17.115687 -124.667891 -82.369923 158.478653 0.000000 0.000000 0.000000 -3.379254 1.079891 7.717893 21.197171 9.030191 -0.174416 50.970280 -8.588952 27.785187 -174.696336 59.665213 -179.970075 0.000000 0.000000 0.000000 
-14.895041 28.510620 0.362355 -179.936662 9.889118 179.831477 1.071484 -7.220058 21.413278 4.631645 8.502995 32.717310 12.317326 -7.468805 40.955010 -9.255608 -1.564218 6.991872 0.000000 0.000000 0.000000 5.767865 -3.846699 23.549025 2.677764 -0.812858 -7.606172 -13.045304 2.682075 31.705045 8.355825 0.962760 10.709101 0.000000 0.000000 0.000000 5.165947 -1.986841 0.051617 5.407605 8.103627 -20.270277 0.326467 -3.713144 10.968683 -0.034594 0.005119 0.003693 0.036660 -1.211496 14.052543 13.015514 -5.683030 30.421116 0.000000 0.000000 0.000000 2.207794 -0.802586 9.150889 -6.855212 -13.957828 -1.143356 -57.368104 -5.217659 17.179013 -125.481012 -82.141501 159.418159 0.000000 0.000000 0.000000 -3.408968 1.081921 7.710509 21.591717 8.749263 -0.193777 51.028616 -7.868318 24.936042 -174.534064 59.352076 -179.984842 0.000000 0.000000 0.000000 
-14.893112 28.495070 0.361621 -179.957357 9.944410 179.827611 1.113625 -7.155777 21.473816 4.623554 8.519364 32.666503 12.305549 -7.522769 40.976187 -9.221974 -1.634856 6.927587 0.000000 0.000000 0.000000 5.785884 -3.723500 23.654422 2.704317 -0.806604 -7.714939 -13.084719 2.685805 31.811241 8.406143 0.931542 10.526139 0.000000 0.000000 0.000000 5.216270 -1.938161 0.123574 5.357810 7.969793 -20.242408 0.329796 -3.714293 11.023778 -0.015907 0.000253 -0.060923 0.009878 -1.280976 14.168525 12.942277 -5.837736 30.636120 0.000000 0.000000 0.000000 2.198082 -0.817993 9.217789 -6.933365 -13.995159 -0.881736 -56.371143 -5.744668 17.306152 -126.081768 -81.984086 160.148634 0.000000 0.000000 0.000000 -3.422677 1.100898 7.782974 21.873684 8.551519 -0.362604 50.926136 -7.173281 22.486458 -174.329172 59.033427 -179.989418 0.000000 0.000000 0.000000 
-14.902363 28.473648 0.357313 -179.985525 10.006623 179.809279 1.139613 -7.052618 21.538904 4.652301 8.586080 32.579828 12.324493 -7.530016 41.052558 -9.224674 -1.681328 6.815674 0.000000 0.000000 0.000000 5.810147 -3.571100 23.789933 2.727623 -0.737979 -7.840775 -13.156993 2.723587 32.002155 8.429191 0.908368 10.324386 0.000000 0.000000 0.000000 5.231937 -1.862095 0.207216 5.384310 7.857528 -20.185243 0.328156 -3.717964 11.043715 -0.013279 0.004937 0.031587 0.009717 -1.291646 14.151832 12.970358 -5.903763 30.775541 0.000000 0.000000 0.000000 2.186684 -0.830307 9.187510 -6.974757 -14.066957 -0.811604 -55.335307 -6.090486 17.889049 -125.632013 -81.924110 159.817711 0.000000 0.000000 0.000000 -3.418284 1.073408 7.716003 22.072052 8.470359 -0.473541 50.689825 -6.500112 20.788686 -174.069242 58.734668 -179.951470 0.000000 0.000000 0.000000 
-14.916416 28.457649 0.351846 179.930255 9.949400 179.902989 1.135298 -6.995834 21.294546 4.755910 8.590901 32.654274 12.395257 -7.630102 41.187168 -9.216805 -1.677263 6.715749 0.000000 0.000000 0.000000 5.822117 -3.508498 23.801449 2.692761 -0.613221 -7.989461 -13.209740 2.716441 32.271677 8.431746 0.907576 10.087523 0.000000 0.000000 0.000000 5.192358 -1.753315 0.149281 5.396759 7.745666 -20.207275 0.312464 -3.716301 11.080629 -0.018311 0.030358 0.005763 0.067831 -1.389353 14.315638 13.067747 -5.875818 30.844981 0.000000 0.000000 0.000000 2.241276 -0.919202 9.358325 -6.971718 -14.236950 -0.761685 -54.372735 -6.507558 18.522401 -124.001661 -81.844477 158.490114 0.000000 0.000000 0.000000 -3.369855 0.968469 7.816204 22.183223 8.518433 -0.424803 50.361942 -5.881307 19.987971 -173.981024 58.517933 179.937222 0.000000 0.000000 0.000000 
-14.926336 28.452782 0.350586 179.932482 10.110111 179.770907 1.171711 -6.846501 21.555546 4.678912 8.642726 32.497077 12.373789 -7.720206 41.239924 -9.182006 -1.709595 6.704892 0.000000 0.000000 0.000000 5.886695 -3.378686 23.812830 2.621404 -0.386433 -7.926152 -13.212288 2.776029 32.612398 8.415335 0.924517 9.883571 0.000000 0.000000 0.000000 5.210085 -1.542069 0.206902 5.489254 7.598240 -20.134126 0.294536 -3.772513 11.164806 -0.015391 -0.019320 -0.001073 0.038957 -1.370162 14.409829 13.157398 -5.909084 30.917910 0.000000 0.000000 0.000000 2.198919 -0.899996 9.377173 -6.945623 -14.282579 -0.610365 -53.596932 -7.065641 19.506341 -122.700510 -82.028584 157.475148 0.000000 0.000000 0.000000 -3.395267 0.988283 7.894935 22.262039 8.800143 -0.583097 50.063917 -5.459318 20.155029 -174.082780 58.388009 179.656160 0.000000 0.000000 0.000000 
-14.929401 28.462027 0.351865 179.922838 10.223282 179.873578 1.173745 -6.749858 21.370374 4.691848 8.680849 32.567281 12.392421 -7.614187 41.175239 -9.204863 -1.692206 6.795622 0.000000 0.000000 0.000000 5.961197 -3.275232 23.616535 2.529044 -0.257967 -7.891037 -13.218938 2.802264 32.752758 8.383143 0.945940 9.800660 0.000000 0.000000 0.000000 5.231263 -1.546739 0.009008 5.559891 7.567935 -20.108741 0.300336 -3.737986 11.231574 0.058969 0.043204 0.046401 0.004543 -1.380258 14.471153 13.297790 -5.982000 30.877745 0.000000 0.000000 0.000000 2.156015 -0.949217 9.439813 -6.910330 -14.419247 -0.539742 -53.079401 -7.740279 20.306835 -121.778066 -82.163337 156.758606 0.000000 0.000000 0.000000 -3.456827 0.978447 7.931602 22.284810 9.110052 -0.340796 49.665680 -4.966645 20.663281 -173.880852 58.280078 179.714175 0.000000 0.000000 0.000000 
